{
	"asset":{
		"generator":"Khronos glTF Blender I/O v3.6.27",
		"version":"2.0"
	},
	"scene":0,
	"scenes":[
		{
			"name":"Scene",
			"nodes":[
				0,
				1
			]
		}
	],
	"nodes":[
		{
			"mesh":0,
			"name":"Vert"
		},
		{
			"mesh":1,
			"name":"Icosphere",
			"scale":[
				0.7526338696479797,
				0.7526338696479797,
				0.7526338696479797
			],
			"translation":[
				1.8041322231292725,
				4.670238971710205,
				0.0745248794555664
			]
		}
	],
	"materials":[
		{
			"doubleSided":true,
			"name":"Material.002",
			"pbrMetallicRoughness":{
				"baseColorFactor":[
					0.13428226113319397,
					0.06712217628955841,
					0.026804201304912567,
					1
				],
				"metallicFactor":0,
				"roughnessFactor":0.5
			}
		},
		{
			"doubleSided":true,
			"name":"Material.001",
			"pbrMetallicRoughness":{
				"baseColorFactor":[
					0.08147384226322174,
					0.3500574231147766,
					0.040170975029468536,
					1
				],
				"metallicFactor":0,
				"roughnessFactor":0.5
			}
		}
	],
	"meshes":[
		{
			"name":"Vert",
			"primitives":[
				{
					"attributes":{
						"POSITION":0,
						"NORMAL":1,
						"TEXCOORD_0":2
					},
					"indices":3,
					"material":0
				}
			]
		},
		{
			"name":"Icosphere.001",
			"primitives":[
				{
					"attributes":{
						"POSITION":4,
						"NORMAL":5
					},
					"indices":6,
					"material":1
				}
			]
		}
	],
	"accessors":[
		{
			"bufferView":0,
			"componentType":5126,
			"count":482,
			"max":[
				1.8928509950637817,
				5.561990737915039,
				1.7181198596954346
			],
			"min":[
				-1.3224807977676392,
				0,
				-2.592155694961548
			],
			"type":"VEC3"
		},
		{
			"bufferView":1,
			"componentType":5126,
			"count":482,
			"type":"VEC3"
		},
		{
			"bufferView":2,
			"componentType":5126,
			"count":482,
			"type":"VEC2"
		},
		{
			"bufferView":3,
			"componentType":5123,
			"count":564,
			"type":"SCALAR"
		},
		{
			"bufferView":4,
			"componentType":5126,
			"count":660,
			"max":[
				0.8490457534790039,
				3.1109986305236816,
				2.7385120391845703
			],
			"min":[
				-5.121461868286133,
				-0.8678205609321594,
				-3.9073736667633057
			],
			"type":"VEC3"
		},
		{
			"bufferView":5,
			"componentType":5126,
			"count":660,
			"type":"VEC3"
		},
		{
			"bufferView":6,
			"componentType":5123,
			"count":660,
			"type":"SCALAR"
		}
	],
	"bufferViews":[
		{
			"buffer":0,
			"byteLength":5784,
			"byteOffset":0,
			"target":34962
		},
		{
			"buffer":0,
			"byteLength":5784,
			"byteOffset":5784,
			"target":34962
		},
		{
			"buffer":0,
			"byteLength":3856,
			"byteOffset":11568,
			"target":34962
		},
		{
			"buffer":0,
			"byteLength":1128,
			"byteOffset":15424,
			"target":34963
		},
		{
			"buffer":0,
			"byteLength":7920,
			"byteOffset":16552,
			"target":34962
		},
		{
			"buffer":0,
			"byteLength":7920,
			"byteOffset":24472,
			"target":34962
		},
		{
			"buffer":0,
			"byteLength":1320,
			"byteOffset":32392,
			"target":34963
		}
	],
	"buffers":[
		{
			"byteLength":33712,
			"uri":"data:application/octet-stream;base64,"
		}
	]
}
