{
	"asset":{
		"generator":"Khronos glTF Blender I/O v3.6.27",
		"version":"2.0"
	},
	"scene":0,
	"scenes":[
		{
			"name":"Scene",
			"nodes":[
				0
			]
		}
	],
	"nodes":[
		{
			"mesh":0,
			"name":"Icosphere",
			"scale":[
				3.494476795196533,
				3.494476795196533,
				3.494476795196533
			]
		}
	],
	"materials":[
		{
			"doubleSided":true,
			"name":"Material.001",
			"pbrMetallicRoughness":{
				"baseColorTexture":{
					"index":0
				},
				"metallicFactor":0,
				"roughnessFactor":0.5
			}
		}
	],
	"meshes":[
		{
			"name":"Icosphere",
			"primitives":[
				{
					"attributes":{
						"POSITION":0,
						"NORMAL":1,
						"TEXCOORD_0":2,
						"TANGENT":3
					},
					"indices":4,
					"material":0
				}
			]
		}
	],
	"textures":[
		{
			"sampler":0,
			"source":0
		}
	],
	"images":[
		{
			"bufferView":5,
			"mimeType":"image/png",
			"name":"texture"
		}
	],
	"accessors":[
		{
			"bufferView":0,
			"componentType":5126,
			"count":285,
			"max":[
				1.3747851848602295,
				0.22319576144218445,
				1.5145204067230225
			],
			"min":[
				-1.3124775886535645,
				-3.1245405673980713,
				-1.2547818422317505
			],
			"type":"VEC3"
		},
		{
			"bufferView":1,
			"componentType":5126,
			"count":285,
			"type":"VEC3"
		},
		{
			"bufferView":2,
			"componentType":5126,
			"count":285,
			"type":"VEC2"
		},
		{
			"bufferView":3,
			"componentType":5126,
			"count":285,
			"type":"VEC4"
		},
		{
			"bufferView":4,
			"componentType":5123,
			"count":285,
			"type":"SCALAR"
		}
	],
	"bufferViews":[
		{
			"buffer":0,
			"byteLength":3420,
			"byteOffset":0,
			"target":34962
		},
		{
			"buffer":0,
			"byteLength":3420,
			"byteOffset":3420,
			"target":34962
		},
		{
			"buffer":0,
			"byteLength":2280,
			"byteOffset":6840,
			"target":34962
		},
		{
			"buffer":0,
			"byteLength":4560,
			"byteOffset":9120,
			"target":34962
		},
		{
			"buffer":0,
			"byteLength":570,
			"byteOffset":13680,
			"target":34963
		},
		{
			"buffer":0,
			"byteLength":251,
			"byteOffset":14252
		}
	],
	"samplers":[
		{
			"magFilter":9728,
			"minFilter":9984
		}
	],
	"buffers":[
		{
			"byteLength":14504,
			"uri":"data:application/octet-stream;base64,"
		}
	]
}
